no nfo found.



Info taken from MediaInfo:

General
Complete name : /home/erikzown/downloads/Cockpit.2012.SWEDiSH.DVDRip.XviD-iMSORNY./imsorny-cockpit.xvid.avi
Format : AVI
Format/Info : Audio Video Interleave
File size : 700 MiB
Duration : 1h 31mn
Overall bit rate mode : Variable
Overall bit rate : 1 067 Kbps
Writing application : VirtualDubMod 1.5.10.2 (build 2540/release)
Writing library : VirtualDubMod build 2540/release

Video
ID : 0
Format : MPEG-4 Visual
Format profile : Advanced Simple@L5
Format settings, BVOP : 2
Format settings, QPel : No
Format settings, GMC : No warppoints
Format settings, Matrix : Default (H.263)
Muxing mode : Packed bitstream
Codec ID : XVID
Codec ID/Hint : XviD
Duration : 1h 31mn
Bit rate : 930 Kbps
Width : 624 pixels
Height : 256 pixels
Display aspect ratio : 2.40:1
Frame rate : 25.000 fps
Color space : YUV
Chroma subsampling : 4:2:0
Bit depth : 8 bits
Scan type : Progressive
Compression mode : Lossy
Bits/(Pixel*Frame) : 0.233
Stream size : 610 MiB (87%)
Writing library : XviD 61

Audio
ID : 1
Format : MPEG Audio
Format version : Version 1
Format profile : Layer 3
Mode : Joint stereo
Mode extension : MS Stereo
Codec ID : 55
Codec ID/Hint : MP3
Duration : 1h 31mn
Bit rate mode : Variable
Bit rate : 124 Kbps
Minimum bit rate : 32.0 Kbps
Channel(s) : 2 channels
Sampling rate : 48.0 KHz
Compression mode : Lossy
Stream size : 81.7 MiB (12%)
Alignment : Aligned on interleaves
Interleave, duration : 24 ms (0.60 video frame)
Interleave, preload duration : 148 ms
Writing library : LAME3.98r
Encoding settings : -m j -V 5 -q 0 -lowpass 16.5 --vbr-new -b 32